<svg width="95" height="29" viewBox="0 0 95 29" fill="none" xmlns="http://www.w3.org/2000/svg">
<path d="M71.5562 15.672C71.6362 16.128 71.8202 16.48 72.1082 16.728C72.4042 16.976 72.8002 17.1 73.2962 17.1C73.9602 17.1 74.4482 16.84 74.7602 16.32C75.0802 15.8 75.2322 14.924 75.2162 13.692C75.0482 14.052 74.7682 14.336 74.3762 14.544C73.9842 14.744 73.5482 14.844 73.0682 14.844C72.5322 14.844 72.0522 14.736 71.6282 14.52C71.2122 14.296 70.8842 13.972 70.6442 13.548C70.4042 13.124 70.2842 12.612 70.2842 12.012C70.2842 11.156 70.5322 10.468 71.0282 9.948C71.5242 9.42 72.2282 9.156 73.1402 9.156C74.2602 9.156 75.0442 9.52 75.4922 10.248C75.9482 10.976 76.1762 12.06 76.1762 13.5C76.1762 14.508 76.0842 15.34 75.9002 15.996C75.7242 16.652 75.4202 17.152 74.9882 17.496C74.5642 17.84 73.9802 18.012 73.2362 18.012C72.4202 18.012 71.7842 17.792 71.3282 17.352C70.8722 16.912 70.6122 16.352 70.5482 15.672H71.5562ZM73.2482 13.92C73.7842 13.92 74.2242 13.756 74.5682 13.428C74.9122 13.092 75.0842 12.64 75.0842 12.072C75.0842 11.472 74.9162 10.988 74.5802 10.62C74.2442 10.252 73.7722 10.068 73.1642 10.068C72.6042 10.068 72.1562 10.244 71.8202 10.596C71.4922 10.948 71.3282 11.412 71.3282 11.988C71.3282 12.572 71.4922 13.04 71.8202 13.392C72.1482 13.744 72.6242 13.92 73.2482 13.92ZM78.2388 18.072C78.0308 18.072 77.8548 18 77.7108 17.856C77.5668 17.712 77.4948 17.536 77.4948 17.328C77.4948 17.12 77.5668 16.944 77.7108 16.8C77.8548 16.656 78.0308 16.584 78.2388 16.584C78.4388 16.584 78.6068 16.656 78.7428 16.8C78.8868 16.944 78.9588 17.12 78.9588 17.328C78.9588 17.536 78.8868 17.712 78.7428 17.856C78.6068 18 78.4388 18.072 78.2388 18.072ZM78.2388 12.936C78.0308 12.936 77.8548 12.864 77.7108 12.72C77.5668 12.576 77.4948 12.4 77.4948 12.192C77.4948 11.984 77.5668 11.808 77.7108 11.664C77.8548 11.52 78.0308 11.448 78.2388 11.448C78.4388 11.448 78.6068 11.52 78.7428 11.664C78.8868 11.808 78.9588 11.984 78.9588 12.192C78.9588 12.4 78.8868 12.576 78.7428 12.72C78.6068 12.864 78.4388 12.936 78.2388 12.936ZM80.2655 13.572C80.2655 12.196 80.4895 11.124 80.9375 10.356C81.3855 9.58 82.1695 9.192 83.2895 9.192C84.4015 9.192 85.1815 9.58 85.6295 10.356C86.0775 11.124 86.3015 12.196 86.3015 13.572C86.3015 14.972 86.0775 16.06 85.6295 16.836C85.1815 17.612 84.4015 18 83.2895 18C82.1695 18 81.3855 17.612 80.9375 16.836C80.4895 16.06 80.2655 14.972 80.2655 13.572ZM85.2215 13.572C85.2215 12.876 85.1735 12.288 85.0775 11.808C84.9895 11.32 84.8015 10.928 84.5135 10.632C84.2335 10.336 83.8255 10.188 83.2895 10.188C82.7455 10.188 82.3295 10.336 82.0415 10.632C81.7615 10.928 81.5735 11.32 81.4775 11.808C81.3895 12.288 81.3455 12.876 81.3455 13.572C81.3455 14.292 81.3895 14.896 81.4775 15.384C81.5735 15.872 81.7615 16.264 82.0415 16.56C82.3295 16.856 82.7455 17.004 83.2895 17.004C83.8255 17.004 84.2335 16.856 84.5135 16.56C84.8015 16.264 84.9895 15.872 85.0775 15.384C85.1735 14.896 85.2215 14.292 85.2215 13.572ZM87.8006 13.572C87.8006 12.196 88.0246 11.124 88.4726 10.356C88.9206 9.58 89.7046 9.192 90.8246 9.192C91.9366 9.192 92.7166 9.58 93.1646 10.356C93.6126 11.124 93.8366 12.196 93.8366 13.572C93.8366 14.972 93.6126 16.06 93.1646 16.836C92.7166 17.612 91.9366 18 90.8246 18C89.7046 18 88.9206 17.612 88.4726 16.836C88.0246 16.06 87.8006 14.972 87.8006 13.572ZM92.7566 13.572C92.7566 12.876 92.7086 12.288 92.6126 11.808C92.5246 11.32 92.3366 10.928 92.0486 10.632C91.7686 10.336 91.3606 10.188 90.8246 10.188C90.2806 10.188 89.8646 10.336 89.5766 10.632C89.2966 10.928 89.1086 11.32 89.0126 11.808C88.9246 12.288 88.8806 12.876 88.8806 13.572C88.8806 14.292 88.9246 14.896 89.0126 15.384C89.1086 15.872 89.2966 16.264 89.5766 16.56C89.8646 16.856 90.2806 17.004 90.8246 17.004C91.3606 17.004 91.7686 16.856 92.0486 16.56C92.3366 16.264 92.5246 15.872 92.6126 15.384C92.7086 14.896 92.7566 14.292 92.7566 13.572Z" fill="white"/>
<path d="M14 0C6.2804 0 0 6.37333 0 14.2072C0 22.041 6.2804 28.4143 14 28.4143C21.7196 28.4143 28 22.041 28 14.2072C28 6.37333 21.7196 0 14 0ZM14 25.5729C7.8246 25.5729 2.8 20.4739 2.8 14.2072C2.8 7.94038 7.8246 2.84143 14 2.84143C20.1754 2.84143 25.2 7.94038 25.2 14.2072C25.2 20.4739 20.1754 25.5729 14 25.5729Z" fill="white"/>
<path d="M16.0417 9.76733H19.25V19.5348H16.0417V9.76733ZM9.625 9.76733H12.8333V19.5348H9.625V9.76733Z" fill="white"/>
<path d="M49 0C52.713 0 56.274 1.49682 58.8995 4.16118C61.525 6.82554 63 10.4392 63 14.2072C63 17.9751 61.525 21.5888 58.8995 24.2531C56.274 26.9175 52.713 28.4143 49 28.4143C45.287 28.4143 41.726 26.9175 39.1005 24.2531C36.475 21.5888 35 17.9751 35 14.2072C35 10.4392 36.475 6.82554 39.1005 4.16118C41.726 1.49682 45.287 0 49 0V0ZM49 26.3847C52.1826 26.3847 55.2348 25.1017 57.4853 22.818C59.7357 20.5343 61 17.4369 61 14.2072C61 10.9775 59.7357 7.88006 57.4853 5.59632C55.2348 3.31259 52.1826 2.02959 49 2.02959C45.8174 2.02959 42.7652 3.31259 40.5147 5.59632C38.2643 7.88006 37 10.9775 37 14.2072C37 17.4369 38.2643 20.5343 40.5147 22.818C42.7652 25.1017 45.8174 26.3847 49 26.3847V26.3847ZM47.5 18.5322L53.894 14.2072L47.5 9.8821V18.5322ZM47.832 7.66578L55.628 12.9407C55.8334 13.0797 56.0019 13.268 56.1184 13.489C56.2349 13.7099 56.2958 13.9566 56.2958 14.2072C56.2958 14.4577 56.2349 14.7044 56.1184 14.9254C56.0019 15.1463 55.8334 15.3346 55.628 15.4736L47.832 20.7485C47.6061 20.9014 47.3436 20.9891 47.0724 21.0024C46.8012 21.0157 46.5316 20.9541 46.2922 20.8241C46.0529 20.6941 45.8528 20.5006 45.7132 20.2643C45.5737 20.0279 45.5 19.7576 45.5 19.4821V8.93022C45.5 8.65472 45.5737 8.38438 45.7132 8.14805C45.8528 7.91171 46.0529 7.71823 46.2922 7.58823C46.5316 7.45824 46.8012 7.39661 47.0724 7.40991C47.3436 7.42321 47.6061 7.51094 47.832 7.66375V7.66578Z" fill="white"/>
</svg>
