<svg width="60" height="60" viewBox="0 0 60 60" fill="none" xmlns="http://www.w3.org/2000/svg">
<path d="M30 14C21.1632 14 14 21.1632 14 30C14 38.8368 21.1632 46 30 46C38.8368 46 46 38.8368 46 30C46 21.1632 38.8368 14 30 14Z" stroke="#519259" stroke-width="1.5" stroke-linecap="round" stroke-linejoin="round"/>
<path d="M17.6328 40.1535C17.6328 40.1535 21.1992 35.5999 29.9992 35.5999C38.7991 35.5999 42.3671 40.1535 42.3671 40.1535" stroke="#519259" stroke-width="1.5" stroke-linecap="round" stroke-linejoin="round"/>
<path d="M30.0012 29.9999C31.2742 29.9999 32.4951 29.4942 33.3953 28.594C34.2955 27.6938 34.8012 26.4729 34.8012 25.1999C34.8012 23.9269 34.2955 22.706 33.3953 21.8058C32.4951 20.9056 31.2742 20.3999 30.0012 20.3999C28.7281 20.3999 27.5072 20.9056 26.6071 21.8058C25.7069 22.706 25.2012 23.9269 25.2012 25.1999C25.2012 26.4729 25.7069 27.6938 26.6071 28.594C27.5072 29.4942 28.7281 29.9999 30.0012 29.9999V29.9999Z" stroke="#519259" stroke-width="1.5" stroke-linecap="round" stroke-linejoin="round"/>
</svg>
