<svg width="60" height="60" viewBox="0 0 60 60" fill="none" xmlns="http://www.w3.org/2000/svg">
<circle cx="30" cy="30" r="30" fill="#519259"/>
<path d="M19.6366 33.3642C21.5857 33.3642 23.1715 31.7047 23.1715 29.6651C23.1715 27.6257 21.5857 25.9666 19.6366 25.9666C17.6874 25.9666 16.1016 27.626 16.1016 29.6651C16.1016 31.705 17.6874 33.3642 19.6366 33.3642V33.3642ZM19.6366 27.0825C20.9977 27.0825 22.1048 28.2411 22.1048 29.6651C22.1048 31.0894 20.9976 32.2479 19.6366 32.2479C18.2755 32.2479 17.1683 31.0894 17.1683 29.6651C17.1683 28.241 18.2755 27.0825 19.6366 27.0825Z" fill="white"/>
<path d="M19.636 34.3787C16.5283 34.3787 14 37.0246 14 40.2763C14 41.2768 14.778 42.0909 15.7341 42.0909H23.538C24.4941 42.0909 25.2716 41.2767 25.2716 40.2763C25.2716 37.0246 22.7434 34.3787 19.6357 34.3787H19.636ZM23.5383 40.9746H15.7344C15.3664 40.9746 15.067 40.6614 15.067 40.2762C15.067 37.6399 17.1169 35.4949 19.6362 35.4949C22.1556 35.4949 24.2055 37.6399 24.2055 40.2762C24.2055 40.6613 23.9061 40.9746 23.5386 40.9746H23.5383Z" fill="white"/>
<path d="M29.9998 26.4631C31.9489 26.4631 33.5348 24.8036 33.5348 22.7645C33.5348 20.7249 31.9489 19.0654 29.9998 19.0654C28.0507 19.0654 26.4648 20.7249 26.4648 22.7645C26.4648 24.8039 28.0507 26.4631 29.9998 26.4631ZM29.9998 20.1814C31.3609 20.1814 32.468 21.34 32.468 22.7643C32.468 24.1881 31.3609 25.3468 29.9998 25.3468C28.6387 25.3468 27.5316 24.1883 27.5316 22.7643C27.5316 21.3399 28.6387 20.1814 29.9998 20.1814Z" fill="white"/>
<path d="M35.6352 33.3761C35.6352 30.1242 33.107 27.4783 29.9993 27.4783C26.8916 27.4783 24.3633 30.1239 24.3633 33.3761C24.3633 34.3767 25.1413 35.1907 26.0969 35.1907H33.9008C34.8574 35.1905 35.6349 34.3766 35.6349 33.3761H35.6352ZM33.9016 34.0746H26.0971C25.729 34.0746 25.4301 33.7613 25.4301 33.3761C25.4301 30.7398 27.48 28.5943 29.9994 28.5943C32.5188 28.5943 34.5686 30.7395 34.5686 33.3761C34.5686 33.7613 34.2693 34.0746 33.9017 34.0746H33.9016Z" fill="white"/>
<path d="M40.3631 33.3642C42.3123 33.3642 43.8982 31.7047 43.8982 29.6651C43.8982 27.6257 42.3123 25.9666 40.3631 25.9666C38.414 25.9666 36.8281 27.626 36.8281 29.6651C36.8281 31.705 38.414 33.3642 40.3631 33.3642ZM40.3631 27.0825C41.7243 27.0825 42.8314 28.2411 42.8314 29.6651C42.8314 31.0894 41.7242 32.2479 40.3631 32.2479C39.0021 32.2479 37.8949 31.0894 37.8949 29.6651C37.8949 28.241 39.0021 27.0825 40.3631 27.0825Z" fill="white"/>
<path d="M40.3645 34.3787C37.2569 34.3787 34.7285 37.024 34.7285 40.2763C34.7285 41.2768 35.5066 42.0909 36.4622 42.0909H44.2661C45.2222 42.0909 46.0002 41.2767 46.0002 40.2763C46.0002 37.0246 43.4719 34.3787 40.3642 34.3787H40.3645ZM44.2663 40.9746H36.4624C36.0944 40.9746 35.7955 40.6614 35.7955 40.2762C35.7955 37.6399 37.8454 35.4949 40.3648 35.4949C42.8841 35.4949 44.934 37.6399 44.934 40.2762C44.934 40.6613 44.6346 40.9746 44.2666 40.9746H44.2663Z" fill="white"/>
<path d="M30 17.0074C30.2947 17.0074 30.5333 16.7575 30.5333 16.4494V13.558C30.5333 13.2499 30.2947 13 30 13C29.7054 13 29.4668 13.2499 29.4668 13.558V16.4494C29.4668 16.7572 29.7054 17.0074 30 17.0074Z" fill="white"/>
<path d="M38.2227 20.5718C38.3593 20.5718 38.4958 20.5176 38.5999 20.4086L40.5538 18.3641C40.7621 18.1461 40.7621 17.7929 40.5538 17.5749C40.3454 17.3569 40.0079 17.3569 39.7995 17.5749L37.8457 19.6194C37.6374 19.8374 37.6374 20.1906 37.8457 20.4086C37.9496 20.5173 38.086 20.5718 38.2227 20.5718H38.2227Z" fill="white"/>
<path d="M21.399 20.4084C21.5031 20.5174 21.6398 20.5717 21.7762 20.5717C21.9128 20.5717 22.0493 20.5174 22.1534 20.4084C22.3618 20.1904 22.3618 19.8372 22.1534 19.6192L20.1996 17.5746C19.9912 17.3566 19.6537 17.3566 19.4453 17.5746C19.237 17.7926 19.237 18.1459 19.4453 18.3639L21.399 20.4084Z" fill="white"/>
<path d="M25.0571 17.5887C25.1422 17.8033 25.3408 17.9333 25.5499 17.9333C25.6179 17.9333 25.6871 17.9198 25.754 17.891C26.0261 17.7732 26.1551 17.4467 26.0427 17.1617L24.9852 14.4904C24.8726 14.2054 24.5603 14.07 24.2882 14.1883C24.0162 14.3061 23.8872 14.6326 23.9996 14.9176L25.0571 17.5887Z" fill="white"/>
<path d="M34.2473 17.891C34.3143 17.9201 34.3832 17.9333 34.4514 17.9333C34.6605 17.9333 34.8592 17.8035 34.9442 17.5886L36.0017 14.9174C36.1143 14.6324 35.9854 14.3062 35.7131 14.1881C35.4402 14.0697 35.129 14.2052 35.0161 14.4902L33.9586 17.1614C33.846 17.4464 33.9755 17.7726 34.2473 17.8909L34.2473 17.891Z" fill="white"/>
</svg>
