<svg width="60" height="60" viewBox="0 0 60 60" fill="none" xmlns="http://www.w3.org/2000/svg">
<path d="M41.0443 44.0497H16.67C15.9723 44.0533 15.301 43.7849 14.7983 43.301C14.5486 43.0652 14.3493 42.7812 14.2121 42.4662C14.0752 42.1516 14.003 41.8122 14 41.4689V23.964C14.004 23.6206 14.0769 23.2819 14.2138 22.9672C14.351 22.6526 14.5496 22.3686 14.7983 22.1318C15.1453 21.7954 15.5781 21.5602 16.0495 21.452L35.0047 15.138C35.6516 14.9219 36.3562 14.9608 36.975 15.2461C37.2904 15.3863 37.5738 15.5888 37.809 15.8408C38.0445 16.0931 38.2266 16.39 38.3447 16.7139L40.0392 21.3832H41.0246C41.7219 21.3795 42.3935 21.648 42.8963 22.1318C43.1437 22.369 43.3409 22.6533 43.4762 22.9679C43.6114 23.2826 43.6824 23.6217 43.6847 23.964V27.9044H43.783C44.066 27.8968 44.3477 27.9469 44.6106 28.0522C44.8798 28.1508 45.1249 28.3051 45.3298 28.5053C45.5445 28.7006 45.7154 28.939 45.8325 29.2046C45.9473 29.4651 46.0044 29.7474 45.9997 30.0321V35.3812C45.9984 35.6645 45.9404 35.9448 45.8285 36.2054C45.7167 36.4659 45.5541 36.7014 45.3496 36.898C44.9359 37.2931 44.3847 37.5121 43.8127 37.5088H43.6847V41.4489C43.6837 41.7932 43.6134 42.1339 43.4782 42.4502C43.3426 42.7668 43.145 43.0528 42.8963 43.2909C42.3985 43.7711 41.7358 44.0422 41.044 44.0495L41.0443 44.0497ZM16.3542 22.9006C16.1553 22.9534 15.9722 23.055 15.8224 23.1961C15.7159 23.2944 15.6308 23.4131 15.5714 23.5454C15.512 23.6773 15.4803 23.8198 15.4774 23.9646V41.4695C15.4803 41.6143 15.512 41.7568 15.5714 41.8891C15.6307 42.021 15.7158 42.1397 15.8224 42.238C16.0503 42.4554 16.3542 42.5758 16.6695 42.5728H41.0438C41.3591 42.5758 41.6629 42.4554 41.8912 42.238C41.9961 42.1391 42.0799 42.0203 42.1376 41.8881C42.195 41.7562 42.2254 41.6137 42.226 41.4695V37.5292H36.2358C36.085 37.5391 35.9336 37.5391 35.7829 37.5292C35.0617 37.4705 34.3628 37.2554 33.7333 36.8989L33.4872 36.7511C32.6711 36.2323 32.0295 35.481 31.6449 34.5937C31.2619 33.7167 31.1619 32.7424 31.3589 31.806C31.5159 31.1065 31.824 30.4495 32.2615 29.8812C32.6989 29.3129 33.2551 28.8469 33.8911 28.5157C34.3608 28.2713 34.8662 28.1018 35.3887 28.0134C35.6704 27.955 35.9584 27.9319 36.2456 27.9445H42.2655V24.0044C42.2645 23.8603 42.2345 23.7178 42.1768 23.5856C42.1194 23.4536 42.0353 23.3346 41.9304 23.236C41.7024 23.0183 41.3986 22.8982 41.0833 22.9009H16.6888C16.5809 22.8867 16.4714 22.8867 16.3635 22.9009L16.3542 22.9006ZM36.2358 36.042H43.8714C44.0614 36.0466 44.2458 35.9757 44.3837 35.8447C44.4451 35.786 44.4939 35.7158 44.5279 35.6379C44.5615 35.5601 44.5796 35.4767 44.5806 35.3916V30.0428C44.5836 29.961 44.5664 29.8802 44.5315 29.8063C44.5011 29.7229 44.4503 29.6483 44.3837 29.5896C44.3124 29.5293 44.2326 29.4798 44.1472 29.4419C44.0551 29.4105 43.9588 29.3937 43.8615 29.3927H36.2358C35.3164 29.3957 34.4326 29.7476 33.763 30.3776C33.4424 30.6771 33.1867 31.0395 33.0119 31.4419C32.8371 31.8443 32.7467 32.2783 32.7467 32.7173C32.7467 33.1559 32.8371 33.59 33.0119 33.9924C33.1867 34.3948 33.4424 34.7572 33.763 35.0567C34.4297 35.6909 35.3154 36.0438 36.2358 36.0419L36.2358 36.042ZM20.9752 21.3842H38.5024L36.9948 17.2172C36.9427 17.0783 36.8638 16.951 36.7622 16.8428C36.661 16.7346 36.5389 16.6476 36.4037 16.5869C36.1061 16.4695 35.7752 16.4695 35.4777 16.5869L20.9752 21.3842ZM38.3841 33.4617H35.606V31.9841H38.3841V33.4617Z" fill="#519259"/>
<path d="M26.9102 33.1983C26.5252 32.8556 26.0619 32.61 25.5784 32.4798C26.3096 32.2694 26.9861 31.8129 27.4084 30.9958C27.7114 30.4091 27.8744 29.7217 27.8669 29.0595C27.8662 28.9963 27.8392 28.9357 27.7938 28.8941C27.7455 28.8501 27.6912 28.8003 27.185 28.8665C26.8007 28.9178 26.4356 29.0306 26.1001 29.2018C25.3679 29.5751 24.8204 30.2105 24.5724 30.9656C24.5512 30.8733 24.5275 30.7818 24.5008 30.6915C24.1453 29.4908 23.172 28.6016 21.8973 28.3129C21.8872 28.3105 20.86 28.1114 20.6851 28.2591C20.6353 28.3012 20.6035 28.3698 20.6035 28.4368C20.6035 28.8292 20.6625 29.2484 20.779 29.6828C21.1705 31.1429 22.1446 32.1518 23.4745 32.4945C23.0108 32.6282 22.568 32.8684 22.1975 33.1981C21.8389 33.5173 21.6114 33.8675 21.5213 34.239C21.4078 34.7059 21.5063 35.2357 21.7984 35.7307C22.3864 36.7271 23.3954 37.4397 24.2948 38.0292C24.3746 38.0815 24.4643 38.1079 24.554 38.1079C24.6435 38.1079 24.7332 38.0817 24.813 38.0294C25.7126 37.4398 26.7215 36.7273 27.3096 35.7308C27.6017 35.2358 27.7001 34.7061 27.5867 34.2392C27.4965 33.8677 27.269 33.5175 26.9103 33.1983L26.9102 33.1983ZM24.9124 31.3246L24.9225 31.2837C25.1018 30.5642 25.5986 29.9508 26.2853 29.6007C26.5793 29.4507 26.9001 29.3517 27.2364 29.3069C27.2619 29.3039 27.3512 29.296 27.4386 29.2894C27.4102 29.8027 27.2677 30.3366 27.0361 30.7846C26.5443 31.7365 25.6364 32.1196 24.7483 32.1748C24.7695 31.8965 24.8447 31.5952 24.9124 31.3246L24.9124 31.3246ZM21.1864 29.563C21.1015 29.2462 21.0501 28.94 21.0331 28.6498C21.2893 28.6706 21.7356 28.7323 21.8076 28.7466C22.9312 29.001 23.7869 29.7773 24.0966 30.8231C24.2258 31.2599 24.2782 31.7243 24.3098 32.1763C24.1512 32.1678 23.9957 32.1496 23.8459 32.1234C22.5301 31.8925 21.5609 30.9593 21.1864 29.563L21.1864 29.563ZM24.5884 37.6534C24.5668 37.6677 24.5408 37.6677 24.5193 37.6534C23.916 37.2581 23.2627 36.8058 22.7398 36.255C23.2982 35.899 23.9228 35.7098 24.5589 35.7098C25.1925 35.7098 25.815 35.8976 26.3719 36.251C25.8482 36.8036 25.1931 37.257 24.5884 37.6534H24.5884ZM26.9493 35.4975C26.8633 35.6434 26.7654 35.7827 26.66 35.9172C26.0197 35.4924 25.2967 35.266 24.5588 35.266C23.8181 35.266 23.0929 35.4938 22.451 35.9214C22.3443 35.7857 22.2453 35.6451 22.1583 35.4975C21.9304 35.1115 21.8478 34.6928 21.9314 34.3485C21.9995 34.068 22.1813 33.7948 22.4716 33.5364C22.9874 33.0773 23.6619 32.8165 24.3135 32.8165C24.3874 32.8165 24.4611 32.8199 24.5342 32.8267C24.5467 32.8279 24.5612 32.8279 24.5738 32.8267C25.291 32.7605 26.062 33.0253 26.6364 33.5364C26.9267 33.7948 27.1085 34.068 27.1766 34.3485C27.2599 34.6928 27.1772 35.1115 26.9493 35.4975L26.9493 35.4975Z" fill="#519259"/>
</svg>
