<svg width="60" height="60" viewBox="0 0 60 60" fill="none" xmlns="http://www.w3.org/2000/svg">
<path d="M45.5509 26.7922L32.566 15.0083C31.8394 14.3581 30.9254 14 29.9941 14C29.0615 14 28.151 14.3586 27.4305 15.0104L14.4292 26.7957C14.042 27.1538 13.8979 27.7279 14.075 28.2968C14.2735 28.8168 14.7317 29.1529 15.2421 29.1529H16.3171V41.7036C16.3171 44.0727 18.1082 46 20.3099 46H39.6734C41.8752 46 43.6662 44.0727 43.6662 41.7036L43.666 29.1529H44.7562C45.2765 29.1529 45.744 28.7977 45.9123 28.2862C46.1111 27.738 45.9648 27.148 45.5509 26.7922ZM34.6489 44.8128H25.3354V35.4934C25.3354 34.7115 25.9567 34.0506 26.6923 34.0506H33.308C34.0475 34.0506 34.6488 34.6979 34.6488 35.4934L34.6489 44.8128ZM44.8787 27.8725C44.8639 27.917 44.824 27.965 44.7568 27.965H43.1147C42.8095 27.965 42.5629 28.2311 42.5629 28.5587V41.7032C42.5629 43.4173 41.2667 44.8121 39.6737 44.8121H35.7521L35.7523 35.4934C35.7523 34.0429 34.6559 32.8631 33.308 32.8631H26.6922C25.3354 32.8631 24.2318 34.0429 24.2318 35.4934V44.8127H20.3109C18.7174 44.8127 17.4217 43.418 17.4217 41.7038V28.5594C17.4217 28.2318 17.1751 27.9657 16.8699 27.9657H15.2426C15.1682 27.9657 15.118 27.9039 15.1096 27.8838C15.0865 27.8095 15.1003 27.7411 15.1444 27.7003L28.1419 15.9191C28.6629 15.4476 29.3211 15.1876 29.9943 15.1876C30.6692 15.1876 31.3319 15.4476 31.8576 15.9184L44.8513 27.7098C44.8824 27.7368 44.9136 27.7776 44.8794 27.8733L44.8787 27.8725Z" fill="#519259"/>
</svg>
