<svg width="60" height="60" viewBox="0 0 60 60" fill="none" xmlns="http://www.w3.org/2000/svg">
<circle cx="30" cy="30" r="30" fill="#519259"/>
<path d="M46 31.2356L44.3282 26.2244L46 21.2098L41.5918 18.0997L39.8876 13.0972L34.4295 13.0725L29.9998 10L25.5701 13.0744L20.112 13.0991L18.4078 18.0997L14 21.2074L15.6718 26.222L14 31.2332L18.4078 34.3444L19.8613 38.6071L16.5636 45.6113L21.5874 46.3406L25.0469 50.9382L29.9998 46.1586L35.0163 51L37.9741 46.3445L43.5086 45.6223L39.9891 39.0457L41.5899 34.3448L46 31.2356ZM36.8771 44.7162L34.6731 48.1866L29.9997 43.6805L25.2647 48.25L22.6102 44.7197L19.2123 44.2271L21.5071 39.3525L25.5717 39.3701L29.9997 42.4465L34.4293 39.3686L38.114 39.3545L40.7157 44.215L36.8771 44.7162ZM38.6993 37.223L37.936 37.6033L33.8406 37.6209L29.9998 40.2869L26.1606 37.6209L21.6129 37.6033L21.3968 37.507L19.9521 33.265L16.1312 30.5673L17.5811 26.222L16.1312 21.8753L19.9521 19.1811L21.4293 14.843L26.1606 14.8218L29.9998 12.1598L33.839 14.8243L38.5704 14.8454L40.0476 19.1835L43.8685 21.8777L42.4185 26.2244L43.8685 30.5697L40.0476 33.2638L38.6993 37.223Z" fill="white"/>
<path d="M29.9986 18.3372C25.4907 18.3372 21.8223 21.8744 21.8223 26.2248C21.8223 30.5716 25.4907 34.1124 29.9986 34.1124C34.5065 34.1124 38.1749 30.5716 38.1749 26.2248C38.1749 21.8725 34.5065 18.3372 29.9986 18.3372ZM29.9986 32.3596C26.4921 32.3596 23.6392 29.6075 23.6392 26.2248C23.6392 22.8421 26.4921 20.09 29.9986 20.09C33.5051 20.09 36.3579 22.8421 36.3579 26.2248C36.3579 29.6079 33.5051 32.3596 29.9986 32.3596Z" fill="white"/>
</svg>
